<svg xmlns="http://www.w3.org/2000/svg" xmlns:xlink="http://www.w3.org/1999/xlink" width="177" zoomAndPan="magnify" viewBox="0 0 132.75 33.749998" height="45" preserveAspectRatio="xMidYMid meet" version="1.0"><defs><g/><clipPath id="01c971a237"><path d="M 1.257812 0.746094 L 34 0.746094 L 34 32.460938 L 1.257812 32.460938 Z M 1.257812 0.746094 " clip-rule="nonzero"/></clipPath><clipPath id="dc9f39b519"><path d="M 10.191406 0.746094 L 25.078125 0.746094 C 30.011719 0.746094 34.011719 4.746094 34.011719 9.679688 L 34.011719 23.527344 C 34.011719 28.460938 30.011719 32.460938 25.078125 32.460938 L 10.191406 32.460938 C 5.257812 32.460938 1.257812 28.460938 1.257812 23.527344 L 1.257812 9.679688 C 1.257812 4.746094 5.257812 0.746094 10.191406 0.746094 Z M 10.191406 0.746094 " clip-rule="nonzero"/></clipPath><clipPath id="14073615b0"><path d="M 5.539062 3.351562 L 30 3.351562 L 30 27.917969 L 5.539062 27.917969 Z M 5.539062 3.351562 " clip-rule="nonzero"/></clipPath><clipPath id="13caf176ea"><path d="M 38.183594 13.542969 L 127.074219 13.542969 L 127.074219 21.148438 L 38.183594 21.148438 Z M 38.183594 13.542969 " clip-rule="nonzero"/></clipPath><clipPath id="b3f9197cdb"><path d="M 11.75 11.726562 L 24.5625 11.726562 L 24.5625 25.691406 L 11.75 25.691406 Z M 11.75 11.726562 " clip-rule="nonzero"/></clipPath><clipPath id="1fb5710f12"><path d="M 18.15625 11.726562 C 19.855469 11.726562 21.484375 12.402344 22.683594 13.605469 C 23.886719 14.804688 24.5625 16.433594 24.5625 18.132812 L 24.5625 19.238281 C 24.5625 20.9375 23.886719 22.566406 22.683594 23.769531 C 21.484375 24.96875 19.855469 25.644531 18.15625 25.644531 C 16.457031 25.644531 14.828125 24.96875 13.628906 23.769531 C 12.425781 22.566406 11.75 20.9375 11.75 19.238281 L 11.75 18.132812 C 11.75 16.433594 12.425781 14.804688 13.628906 13.605469 C 14.828125 12.402344 16.457031 11.726562 18.15625 11.726562 Z M 18.15625 11.726562 " clip-rule="nonzero"/></clipPath><clipPath id="f6209ea5de"><path d="M 14 10.335938 L 22.992188 10.335938 L 22.992188 20 L 14 20 Z M 14 10.335938 " clip-rule="nonzero"/></clipPath><clipPath id="98f1de7093"><path d="M 13.3125 14 L 22.992188 14 L 22.992188 24.480469 L 13.3125 24.480469 Z M 13.3125 14 " clip-rule="nonzero"/></clipPath><clipPath id="13a27026b0"><path d="M 13.3125 15 L 17 15 L 17 24 L 13.3125 24 Z M 13.3125 15 " clip-rule="nonzero"/></clipPath><clipPath id="5a9323c213"><path d="M 20 11 L 22.992188 11 L 22.992188 16 L 20 16 Z M 20 11 " clip-rule="nonzero"/></clipPath></defs><g clip-path="url(#01c971a237)"><g clip-path="url(#dc9f39b519)"><path fill="#ff5757" d="M 1.257812 0.746094 L 33.964844 0.746094 L 33.964844 32.460938 L 1.257812 32.460938 Z M 1.257812 0.746094 " fill-opacity="1" fill-rule="nonzero"/></g></g><g clip-path="url(#14073615b0)"><path fill="#ffffff" d="M 29.339844 12.203125 L 18.121094 3.632812 C 17.835938 3.414062 17.4375 3.414062 17.148438 3.632812 L 5.933594 12.203125 C 5.660156 12.414062 5.550781 12.773438 5.660156 13.097656 C 5.769531 13.421875 6.074219 13.640625 6.417969 13.640625 L 8.414062 13.640625 L 8.414062 26.703125 C 8.414062 27.148438 8.773438 27.507812 9.214844 27.507812 L 26.054688 27.507812 C 26.496094 27.507812 26.855469 27.148438 26.855469 26.703125 L 26.855469 13.640625 L 28.851562 13.640625 C 29.195312 13.640625 29.5 13.421875 29.609375 13.097656 C 29.71875 12.773438 29.609375 12.414062 29.339844 12.203125 Z M 26.054688 12.039062 C 25.613281 12.039062 25.253906 12.398438 25.253906 12.839844 L 25.253906 25.902344 L 10.015625 25.902344 L 10.015625 12.839844 C 10.015625 12.398438 9.65625 12.039062 9.214844 12.039062 L 8.785156 12.039062 L 17.636719 5.28125 L 26.484375 12.039062 Z M 26.054688 12.039062 " fill-opacity="1" fill-rule="nonzero"/></g><path fill="#ffffff" d="M 17.367188 13.1875 L 13.578125 14.527344 C 13.257812 14.640625 13.042969 14.945312 13.042969 15.28125 L 13.042969 16.722656 C 13.042969 19.742188 14.640625 22.601562 17.214844 24.183594 C 17.34375 24.261719 17.488281 24.300781 17.636719 24.300781 C 17.78125 24.300781 17.925781 24.261719 18.054688 24.183594 C 20.628906 22.601562 22.226562 19.742188 22.226562 16.722656 L 22.226562 15.28125 C 22.226562 14.945312 22.011719 14.640625 21.691406 14.527344 L 17.902344 13.1875 C 17.730469 13.125 17.539062 13.125 17.367188 13.1875 Z M 20.625 15.847656 L 20.625 16.722656 C 20.625 19.023438 19.492188 21.207031 17.636719 22.539062 C 15.78125 21.207031 14.644531 19.023438 14.644531 16.722656 L 14.644531 15.847656 L 17.636719 14.792969 Z M 20.625 15.847656 " fill-opacity="1" fill-rule="nonzero"/><g fill="#000000" fill-opacity="1"><g transform="translate(39.509124, 29.034923)"><g><path d="M 0.765625 0 L 0.765625 -0.34375 L 1.390625 -0.5625 C 1.859375 -0.71875 2.171875 -0.9375 2.328125 -1.21875 C 2.492188 -1.5 2.578125 -1.875 2.578125 -2.34375 C 2.609375 -3.738281 2.625 -5.144531 2.625 -6.5625 C 2.625 -7.988281 2.625 -9.410156 2.625 -10.828125 L 2.625 -12.21875 C 2.625 -13.613281 2.625 -15.015625 2.625 -16.421875 C 2.625 -17.835938 2.609375 -19.242188 2.578125 -20.640625 C 2.578125 -21.109375 2.515625 -21.476562 2.390625 -21.75 C 2.265625 -22.03125 1.976562 -22.253906 1.53125 -22.421875 L 0.765625 -22.703125 L 0.765625 -23.046875 L 17.671875 -23.046875 L 17.921875 -17.25 L 17.5625 -17.25 L 15.578125 -20.921875 C 15.335938 -21.359375 15.066406 -21.703125 14.765625 -21.953125 C 14.460938 -22.210938 14.046875 -22.34375 13.515625 -22.34375 L 7.890625 -22.34375 C 7.867188 -20.695312 7.859375 -19.007812 7.859375 -17.28125 C 7.859375 -15.5625 7.859375 -13.851562 7.859375 -12.15625 L 11.484375 -12.15625 C 12.023438 -12.15625 12.421875 -12.269531 12.671875 -12.5 C 12.929688 -12.726562 13.175781 -13.066406 13.40625 -13.515625 L 14.140625 -14.84375 L 14.5 -14.84375 L 14.5 -8.734375 L 14.140625 -8.734375 L 13.375 -10.0625 C 13.144531 -10.476562 12.90625 -10.8125 12.65625 -11.0625 C 12.414062 -11.320312 12.023438 -11.453125 11.484375 -11.453125 L 7.859375 -11.453125 C 7.859375 -9.828125 7.859375 -8.273438 7.859375 -6.796875 C 7.859375 -5.316406 7.867188 -3.863281 7.890625 -2.4375 C 7.890625 -1.53125 8.332031 -0.9375 9.21875 -0.65625 L 10.265625 -0.34375 L 10.265625 0 Z M 0.765625 0 "/></g></g></g><g fill="#000000" fill-opacity="1"><g transform="translate(70.093526, 29.034923)"><g><path d="M 1.21875 0 L 1.21875 -0.34375 L 2.375 -0.703125 C 2.789062 -0.816406 3.09375 -1.039062 3.28125 -1.375 C 3.46875 -1.71875 3.5625 -2.117188 3.5625 -2.578125 L 3.5625 -19.375 C 3.300781 -19.9375 3.09375 -20.359375 2.9375 -20.640625 C 2.789062 -20.921875 2.625 -21.160156 2.4375 -21.359375 C 2.257812 -21.554688 2.003906 -21.804688 1.671875 -22.109375 L 1.078125 -22.703125 L 1.078125 -23.046875 L 7.265625 -23.046875 L 18.859375 -7.234375 L 18.859375 -20.390625 C 18.859375 -20.859375 18.78125 -21.273438 18.625 -21.640625 C 18.476562 -22.015625 18.171875 -22.265625 17.703125 -22.390625 L 16.546875 -22.703125 L 16.546875 -23.046875 L 21.546875 -23.046875 L 21.546875 -22.703125 L 20.609375 -22.390625 C 20.179688 -22.242188 19.921875 -21.992188 19.828125 -21.640625 C 19.742188 -21.296875 19.703125 -20.890625 19.703125 -20.421875 L 19.703125 0.109375 L 17.734375 0.109375 L 4.40625 -18.234375 L 4.40625 -2.578125 C 4.40625 -2.117188 4.472656 -1.722656 4.609375 -1.390625 C 4.742188 -1.066406 5.035156 -0.835938 5.484375 -0.703125 L 6.53125 -0.34375 L 6.53125 0 Z M 1.21875 0 "/></g></g></g><g fill="#000000" fill-opacity="1"><g transform="translate(104.69251, 29.034923)"><g><path d="M 12.78125 0.625 C 10.519531 0.625 8.472656 0.164062 6.640625 -0.75 C 4.816406 -1.664062 3.367188 -3.03125 2.296875 -4.84375 C 1.234375 -6.664062 0.703125 -8.894531 0.703125 -11.53125 C 0.703125 -13.53125 1.023438 -15.285156 1.671875 -16.796875 C 2.328125 -18.304688 3.21875 -19.570312 4.34375 -20.59375 C 5.476562 -21.625 6.785156 -22.394531 8.265625 -22.90625 C 9.742188 -23.414062 11.304688 -23.671875 12.953125 -23.671875 C 14.285156 -23.671875 15.507812 -23.519531 16.625 -23.21875 C 17.738281 -22.914062 18.785156 -22.5 19.765625 -21.96875 L 19.90625 -17.671875 L 19.5625 -17.671875 L 17.8125 -20.46875 C 17.582031 -20.90625 17.328125 -21.300781 17.046875 -21.65625 C 16.765625 -22.019531 16.414062 -22.296875 16 -22.484375 C 15.644531 -22.648438 15.296875 -22.773438 14.953125 -22.859375 C 14.617188 -22.941406 14.195312 -22.984375 13.6875 -22.984375 C 12.332031 -22.984375 11.101562 -22.617188 10 -21.890625 C 8.894531 -21.171875 8.007812 -19.976562 7.34375 -18.3125 C 6.6875 -16.644531 6.359375 -14.367188 6.359375 -11.484375 C 6.359375 -8.617188 6.671875 -6.351562 7.296875 -4.6875 C 7.921875 -3.03125 8.773438 -1.84375 9.859375 -1.125 C 10.941406 -0.414062 12.160156 -0.0625 13.515625 -0.0625 C 14.253906 -0.0625 14.84375 -0.113281 15.28125 -0.21875 C 15.726562 -0.332031 16.175781 -0.492188 16.625 -0.703125 C 17.0625 -0.890625 17.394531 -1.160156 17.625 -1.515625 C 17.863281 -1.878906 18.078125 -2.269531 18.265625 -2.6875 L 19.796875 -6.109375 L 20.15625 -6.109375 L 20.046875 -1.125 C 19.066406 -0.601562 17.972656 -0.179688 16.765625 0.140625 C 15.554688 0.460938 14.226562 0.625 12.78125 0.625 Z M 12.78125 0.625 "/></g></g></g><g clip-path="url(#13caf176ea)"><path fill="#ffffff" d="M 38.183594 13.542969 L 127.0625 13.542969 L 127.0625 21.148438 L 38.183594 21.148438 Z M 38.183594 13.542969 " fill-opacity="1" fill-rule="nonzero"/></g><g clip-path="url(#b3f9197cdb)"><g clip-path="url(#1fb5710f12)"><path fill="#ff5757" d="M 11.75 11.726562 L 24.5625 11.726562 L 24.5625 25.640625 L 11.75 25.640625 Z M 11.75 11.726562 " fill-opacity="1" fill-rule="nonzero"/></g></g><g clip-path="url(#f6209ea5de)"><path fill="#ffffff" d="M 20.785156 14.484375 C 20.601562 14.34375 20.453125 14.175781 20.34375 13.976562 C 20.320312 14.0625 20.292969 14.148438 20.265625 14.234375 C 20.183594 14.488281 20.105469 14.746094 20.03125 15.007812 C 20.003906 15.214844 19.933594 15.40625 19.824219 15.585938 C 19.65625 15.769531 19.523438 15.269531 19.5 15.121094 C 19.433594 14.515625 19.410156 13.910156 19.433594 13.300781 C 19.433594 12.6875 19.535156 12.023438 19.445312 11.414062 C 19.367188 10.882812 18.984375 10.402344 18.433594 10.492188 C 17.796875 10.597656 17.664062 11.242188 17.632812 11.820312 C 17.589844 12.535156 17.550781 13.25 17.511719 13.960938 C 17.492188 14.308594 17.472656 14.65625 17.453125 15 C 17.4375 15.246094 17.457031 15.542969 17.417969 15.804688 C 17.320312 15.816406 17.230469 15.796875 17.144531 15.75 C 17.105469 15.535156 17.042969 15.320312 16.996094 15.121094 L 16.601562 13.449219 C 16.503906 12.898438 16.367188 12.355469 16.195312 11.820312 C 15.976562 11.269531 15.363281 10.945312 14.851562 11.292969 C 14.582031 11.476562 14.488281 11.726562 14.566406 12.042969 C 14.589844 12.128906 14.613281 12.214844 14.636719 12.304688 C 14.796875 13.332031 14.960938 14.363281 15.125 15.390625 C 15.203125 15.894531 15.242188 16.4375 15.621094 16.804688 C 15.824219 16.996094 16.0625 17.085938 16.339844 17.070312 C 16.453125 17.136719 16.574219 17.15625 16.703125 17.136719 C 16.78125 17.121094 16.855469 17.09375 16.925781 17.054688 C 17.253906 17.160156 17.582031 17.15625 17.910156 17.035156 C 18.289062 16.898438 18.515625 16.632812 18.589844 16.234375 C 18.855469 16.707031 19.257812 16.949219 19.796875 16.964844 C 19.953125 16.964844 20.101562 16.929688 20.242188 16.867188 C 20.191406 17.054688 20.140625 17.238281 20.097656 17.425781 C 19.929688 18.035156 19.796875 18.65625 19.707031 19.285156 C 19.703125 19.460938 19.761719 19.617188 19.882812 19.746094 C 20.003906 19.875 20.152344 19.941406 20.332031 19.945312 C 20.507812 19.9375 20.65625 19.867188 20.777344 19.742188 C 20.898438 19.613281 20.957031 19.460938 20.957031 19.285156 C 21.03125 18.835938 21.132812 18.394531 21.257812 17.960938 C 21.371094 17.492188 21.488281 17.03125 21.625 16.570312 C 21.816406 15.941406 22.050781 15.332031 22.292969 14.722656 C 21.75 14.90625 21.246094 14.828125 20.785156 14.484375 Z M 18.222656 11.632812 C 18.214844 11.628906 18.214844 11.625 18.21875 11.617188 C 18.222656 11.605469 18.222656 11.617188 18.222656 11.632812 Z M 18.21875 11.667969 L 18.21875 11.675781 C 18.21875 11.683594 18.21875 11.6875 18.21875 11.667969 Z M 18.21875 11.667969 " fill-opacity="1" fill-rule="nonzero"/></g><path fill="#ffffff" d="M 20.785156 14.484375 C 20.632812 14.371094 20.503906 14.234375 20.398438 14.074219 C 20.242188 14.578125 20.09375 15.085938 19.957031 15.597656 C 19.910156 15.773438 19.929688 15.9375 20.015625 16.09375 C 20.097656 16.25 20.226562 16.355469 20.394531 16.414062 C 20.5625 16.457031 20.726562 16.433594 20.875 16.34375 C 21.027344 16.253906 21.121094 16.121094 21.164062 15.953125 C 21.269531 15.5625 21.378906 15.171875 21.496094 14.785156 C 21.234375 14.742188 21 14.640625 20.785156 14.484375 Z M 20.785156 14.484375 " fill-opacity="1" fill-rule="nonzero"/><g clip-path="url(#98f1de7093)"><path fill="#ffffff" d="M 21.578125 17.988281 C 21.621094 17.738281 21.683594 17.492188 21.761719 17.25 C 21.984375 16.390625 22.207031 15.53125 22.429688 14.671875 C 21.996094 14.859375 21.5625 14.863281 21.128906 14.679688 C 21 15.183594 20.867188 15.691406 20.734375 16.199219 C 20.667969 16.453125 20.589844 16.71875 20.515625 16.984375 C 20.203125 16.566406 19.796875 16.308594 19.289062 16.207031 C 18.824219 16.097656 18.359375 16.105469 17.898438 16.230469 C 17.441406 16.359375 17.039062 16.589844 16.695312 16.921875 C 16.644531 16.972656 16.59375 17.027344 16.542969 17.082031 C 16.257812 16.679688 15.9375 16.308594 15.582031 15.972656 C 15.199219 15.554688 14.652344 15.320312 14.191406 15.773438 C 13.800781 16.152344 13.769531 16.769531 13.710938 17.289062 C 13.59375 18.398438 13.644531 19.5 13.863281 20.59375 C 14.078125 21.691406 14.597656 22.691406 14.78125 23.792969 C 14.816406 23.933594 14.886719 24.046875 15 24.136719 C 15.113281 24.226562 15.242188 24.273438 15.386719 24.277344 C 16.5 24.277344 17.613281 24.277344 18.730469 24.277344 C 19.285156 24.277344 19.800781 24.203125 20.015625 23.570312 C 20.074219 23.394531 20.078125 23.199219 20.140625 23.019531 C 20.214844 22.828125 20.320312 22.648438 20.457031 22.492188 C 21.121094 21.683594 21.992188 21.070312 22.121094 19.917969 C 22.179688 19.390625 22.050781 18.910156 21.730469 18.484375 C 21.601562 18.34375 21.550781 18.179688 21.578125 17.988281 Z M 18.378906 19.429688 C 18.34375 19.382812 18.308594 19.335938 18.265625 19.292969 C 18.320312 19.304688 18.363281 19.328125 18.394531 19.371094 C 18.414062 19.414062 18.425781 19.457031 18.425781 19.503906 C 18.410156 19.476562 18.394531 19.453125 18.378906 19.429688 Z M 15.570312 20.5 C 15.515625 20.519531 15.535156 20.476562 15.570312 20.5 Z M 15.871094 22.914062 C 15.886719 22.925781 15.898438 22.9375 15.914062 22.949219 L 15.914062 22.953125 L 15.878906 22.953125 C 15.878906 22.941406 15.875 22.925781 15.871094 22.914062 Z M 15.871094 22.914062 " fill-opacity="1" fill-rule="nonzero"/></g><path fill="#ffffff" d="M 15.308594 11.199219 C 15.175781 11.214844 15.050781 11.253906 14.9375 11.316406 C 14.820312 11.382812 14.722656 11.464844 14.640625 11.570312 C 14.5625 11.671875 14.503906 11.789062 14.46875 11.917969 C 14.4375 12.042969 14.429688 12.171875 14.449219 12.304688 C 14.480469 12.761719 14.558594 13.222656 14.625 13.675781 C 14.75 14.535156 14.90625 15.386719 15.09375 16.234375 C 15.136719 16.40625 15.230469 16.539062 15.382812 16.628906 C 15.53125 16.71875 15.695312 16.742188 15.863281 16.699219 C 16.03125 16.640625 16.15625 16.53125 16.242188 16.375 C 16.324219 16.21875 16.34375 16.054688 16.300781 15.882812 C 16.15625 15.222656 16.027344 14.554688 15.917969 13.886719 C 15.863281 13.566406 15.816406 13.242188 15.773438 12.917969 C 15.753906 12.777344 15.742188 12.6875 15.726562 12.53125 C 15.714844 12.445312 15.703125 12.359375 15.699219 12.273438 C 15.695312 12.238281 15.695312 12.207031 15.695312 12.175781 C 15.6875 12.277344 15.648438 12.363281 15.574219 12.429688 C 15.496094 12.5 15.410156 12.53125 15.308594 12.527344 C 15.484375 12.515625 15.632812 12.449219 15.753906 12.320312 C 15.871094 12.191406 15.933594 12.039062 15.933594 11.863281 C 15.917969 11.535156 15.65625 11.160156 15.308594 11.199219 Z M 15.308594 11.199219 " fill-opacity="1" fill-rule="nonzero"/><g clip-path="url(#13a27026b0)"><path fill="#ffffff" d="M 15.03125 15.585938 C 14.316406 15.558594 13.5625 15.847656 13.402344 16.667969 C 13.339844 17.09375 13.3125 17.523438 13.320312 17.953125 C 13.308594 18.371094 13.308594 18.789062 13.335938 19.203125 C 13.445312 20.742188 13.957031 22.222656 15.175781 23.148438 C 15.324219 23.238281 15.484375 23.261719 15.65625 23.214844 C 15.824219 23.167969 15.949219 23.066406 16.03125 22.910156 C 16.117188 22.753906 16.136719 22.585938 16.09375 22.414062 C 16.050781 22.242188 15.953125 22.105469 15.808594 22.003906 C 15.046875 21.429688 14.707031 20.386719 14.609375 19.441406 C 14.554688 18.804688 14.546875 18.171875 14.585938 17.535156 C 14.59375 17.410156 14.546875 17.019531 14.628906 16.929688 C 14.761719 16.898438 14.898438 16.894531 15.03125 16.910156 C 15.835938 16.9375 15.835938 15.613281 15.03125 15.585938 Z M 15.03125 15.585938 " fill-opacity="1" fill-rule="nonzero"/></g><path fill="#ff5757" d="M 14.820312 15.871094 C 15.230469 16.054688 15.578125 16.316406 15.867188 16.660156 C 16.011719 16.820312 16.148438 16.984375 16.285156 17.152344 C 16.4375 17.320312 16.5625 17.507812 16.664062 17.710938 C 16.789062 17.929688 16.765625 18.136719 16.601562 18.332031 C 16.457031 18.503906 16.316406 18.660156 16.074219 18.589844 C 15.632812 18.441406 15.246094 18.199219 14.921875 17.863281 C 14.777344 17.71875 14.550781 17.945312 14.695312 18.089844 C 15.011719 18.402344 15.375 18.644531 15.785156 18.820312 C 15.972656 18.921875 16.175781 18.953125 16.382812 18.90625 C 16.570312 18.828125 16.722656 18.703125 16.839844 18.539062 C 16.980469 18.386719 17.054688 18.210938 17.054688 18.003906 C 17.042969 17.785156 16.976562 17.582031 16.859375 17.394531 C 16.625 17.035156 16.359375 16.703125 16.058594 16.398438 C 15.738281 16.03125 15.351562 15.753906 14.90625 15.566406 C 14.714844 15.492188 14.628906 15.796875 14.820312 15.871094 Z M 14.820312 15.871094 " fill-opacity="1" fill-rule="nonzero"/><path fill="#ff5757" d="M 21.519531 17.996094 C 20.871094 17.484375 20.160156 17.085938 19.382812 16.8125 C 18.988281 16.671875 18.582031 16.570312 18.167969 16.503906 C 17.820312 16.449219 17.378906 16.347656 17.035156 16.46875 C 16.289062 16.726562 16.582031 17.820312 17.019531 18.214844 C 17.632812 18.765625 18.511719 18.910156 19.160156 19.421875 L 19.273438 19.148438 C 18.9375 19.144531 18.617188 19.199219 18.300781 19.3125 C 17.988281 19.425781 17.707031 19.59375 17.453125 19.8125 C 17.203125 20.03125 17 20.289062 16.839844 20.582031 C 16.683594 20.875 16.585938 21.191406 16.542969 21.519531 C 16.511719 21.722656 16.820312 21.808594 16.847656 21.605469 C 17.027344 20.386719 18.007812 19.421875 19.273438 19.46875 C 19.402344 19.472656 19.496094 19.28125 19.386719 19.195312 C 18.863281 18.785156 18.242188 18.582031 17.664062 18.269531 C 17.371094 18.136719 17.140625 17.929688 16.984375 17.648438 C 16.890625 17.445312 16.875 17.238281 16.933594 17.023438 C 17.007812 16.773438 17.191406 16.734375 17.425781 16.742188 C 18.871094 16.820312 20.160156 17.3125 21.292969 18.21875 C 21.453125 18.347656 21.679688 18.121094 21.519531 17.996094 Z M 21.519531 17.996094 " fill-opacity="1" fill-rule="nonzero"/><g clip-path="url(#5a9323c213)"><path fill="#ffffff" d="M 21.539062 14.453125 L 22 13.027344 L 22.105469 12.695312 C 22.125 12.644531 22.144531 12.589844 22.160156 12.535156 C 22.199219 12.402344 22.097656 12.632812 22.164062 12.527344 C 22.179688 12.5 22.191406 12.472656 22.210938 12.449219 C 22.152344 12.523438 22.144531 12.535156 22.191406 12.488281 L 22.128906 12.542969 C 22.035156 12.578125 22.019531 12.585938 22.085938 12.5625 C 21.964844 12.59375 21.859375 12.570312 21.765625 12.492188 C 21.71875 12.453125 21.714844 12.449219 21.75 12.484375 C 21.683594 12.390625 21.671875 12.371094 21.707031 12.429688 C 21.761719 12.535156 21.671875 12.285156 21.695312 12.398438 C 21.703125 12.421875 21.710938 12.445312 21.714844 12.46875 C 21.726562 12.539062 21.726562 12.515625 21.707031 12.398438 C 21.703125 12.496094 21.71875 12.597656 21.710938 12.695312 C 21.710938 12.753906 21.707031 12.8125 21.695312 12.871094 C 21.734375 12.703125 21.695312 12.851562 21.691406 12.894531 C 21.667969 13.007812 21.640625 13.125 21.613281 13.238281 C 21.550781 13.46875 21.472656 13.691406 21.390625 13.914062 C 21.375 13.960938 21.355469 14.007812 21.339844 14.054688 C 21.332031 14.082031 21.320312 14.105469 21.3125 14.128906 C 21.351562 14.035156 21.355469 14.015625 21.328125 14.082031 C 21.304688 14.113281 21.285156 14.148438 21.273438 14.183594 C 21.335938 14.105469 21.34375 14.089844 21.300781 14.140625 C 21.253906 14.1875 21.265625 14.175781 21.339844 14.109375 C 21.191406 14.207031 21.097656 14.34375 21.054688 14.519531 C 21.011719 14.691406 21.03125 14.855469 21.117188 15.015625 C 21.292969 15.304688 22.007812 15.359375 22.304688 15.15625 C 22.304688 15.15625 22.558594 14.402344 22.722656 13.90625 C 22.894531 13.4375 22.972656 12.949219 22.964844 12.449219 C 22.929688 11.863281 22.59375 11.226562 21.957031 11.257812 C 21.578125 11.289062 21.300781 11.46875 21.117188 11.800781 C 20.996094 12.03125 20.90625 12.269531 20.84375 12.523438 C 20.671875 13.046875 20.515625 13.449219 20.34375 13.976562 C 20.238281 14.304688 20.453125 14.839844 20.769531 14.914062 C 20.9375 14.957031 21.097656 14.933594 21.25 14.84375 C 21.398438 14.753906 21.496094 14.621094 21.539062 14.453125 Z M 21.539062 14.453125 " fill-opacity="1" fill-rule="nonzero"/></g><g fill="#000000" fill-opacity="1"><g transform="translate(39.552872, 19.257145)"><g><path d="M 2.8125 -1.671875 L 1.203125 -1.671875 L 1.203125 0 L 0.359375 0 L 0.359375 -4.078125 L 3.015625 -4.078125 L 3.015625 -3.390625 L 1.203125 -3.390625 L 1.203125 -2.34375 L 2.8125 -2.34375 Z M 2.8125 -1.671875 "/></g></g></g><g fill="#000000" fill-opacity="1"><g transform="translate(43.100081, 19.257145)"><g><path d="M 3.71875 -1.953125 C 3.71875 -1.546875 3.644531 -1.191406 3.5 -0.890625 C 3.351562 -0.585938 3.148438 -0.351562 2.890625 -0.1875 C 2.628906 -0.0195312 2.328125 0.0625 1.984375 0.0625 C 1.640625 0.0625 1.335938 -0.0195312 1.078125 -0.1875 C 0.816406 -0.351562 0.613281 -0.582031 0.46875 -0.875 C 0.320312 -1.175781 0.242188 -1.523438 0.234375 -1.921875 L 0.234375 -2.125 C 0.234375 -2.53125 0.304688 -2.882812 0.453125 -3.1875 C 0.597656 -3.488281 0.800781 -3.71875 1.0625 -3.875 C 1.332031 -4.039062 1.632812 -4.125 1.96875 -4.125 C 2.3125 -4.125 2.613281 -4.039062 2.875 -3.875 C 3.144531 -3.71875 3.351562 -3.488281 3.5 -3.1875 C 3.644531 -2.882812 3.71875 -2.53125 3.71875 -2.125 Z M 2.859375 -2.125 C 2.859375 -2.550781 2.78125 -2.875 2.625 -3.09375 C 2.476562 -3.320312 2.265625 -3.4375 1.984375 -3.4375 C 1.691406 -3.4375 1.46875 -3.328125 1.3125 -3.109375 C 1.164062 -2.890625 1.09375 -2.566406 1.09375 -2.140625 L 1.09375 -1.953125 C 1.09375 -1.535156 1.164062 -1.207031 1.3125 -0.96875 C 1.46875 -0.738281 1.691406 -0.625 1.984375 -0.625 C 2.265625 -0.625 2.476562 -0.734375 2.625 -0.953125 C 2.78125 -1.179688 2.859375 -1.507812 2.859375 -1.9375 Z M 2.859375 -2.125 "/></g></g></g><g fill="#000000" fill-opacity="1"><g transform="translate(47.464537, 19.257145)"><g><path d="M 3.671875 0 L 2.84375 0 L 1.203125 -2.6875 L 1.203125 0 L 0.359375 0 L 0.359375 -4.078125 L 1.203125 -4.078125 L 2.84375 -1.390625 L 2.84375 -4.078125 L 3.671875 -4.078125 Z M 3.671875 0 "/></g></g></g><g fill="#000000" fill-opacity="1"><g transform="translate(51.918553, 19.257145)"><g><path d="M 0.359375 0 L 0.359375 -4.078125 L 1.625 -4.078125 C 1.976562 -4.078125 2.296875 -3.992188 2.578125 -3.828125 C 2.859375 -3.671875 3.078125 -3.441406 3.234375 -3.140625 C 3.398438 -2.847656 3.484375 -2.507812 3.484375 -2.125 L 3.484375 -1.9375 C 3.484375 -1.5625 3.40625 -1.222656 3.25 -0.921875 C 3.09375 -0.628906 2.867188 -0.398438 2.578125 -0.234375 C 2.296875 -0.078125 1.976562 0 1.625 0 Z M 1.203125 -3.390625 L 1.203125 -0.671875 L 1.609375 -0.671875 C 1.941406 -0.671875 2.191406 -0.773438 2.359375 -0.984375 C 2.535156 -1.203125 2.625 -1.515625 2.625 -1.921875 L 2.625 -2.140625 C 2.625 -2.546875 2.535156 -2.851562 2.359375 -3.0625 C 2.191406 -3.28125 1.945312 -3.390625 1.625 -3.390625 Z M 1.203125 -3.390625 "/></g></g></g><g fill="#000000" fill-opacity="1"><g transform="translate(56.050709, 19.257145)"><g><path d="M 3.71875 -1.953125 C 3.71875 -1.546875 3.644531 -1.191406 3.5 -0.890625 C 3.351562 -0.585938 3.148438 -0.351562 2.890625 -0.1875 C 2.628906 -0.0195312 2.328125 0.0625 1.984375 0.0625 C 1.640625 0.0625 1.335938 -0.0195312 1.078125 -0.1875 C 0.816406 -0.351562 0.613281 -0.582031 0.46875 -0.875 C 0.320312 -1.175781 0.242188 -1.523438 0.234375 -1.921875 L 0.234375 -2.125 C 0.234375 -2.53125 0.304688 -2.882812 0.453125 -3.1875 C 0.597656 -3.488281 0.800781 -3.71875 1.0625 -3.875 C 1.332031 -4.039062 1.632812 -4.125 1.96875 -4.125 C 2.3125 -4.125 2.613281 -4.039062 2.875 -3.875 C 3.144531 -3.71875 3.351562 -3.488281 3.5 -3.1875 C 3.644531 -2.882812 3.71875 -2.53125 3.71875 -2.125 Z M 2.859375 -2.125 C 2.859375 -2.550781 2.78125 -2.875 2.625 -3.09375 C 2.476562 -3.320312 2.265625 -3.4375 1.984375 -3.4375 C 1.691406 -3.4375 1.46875 -3.328125 1.3125 -3.109375 C 1.164062 -2.890625 1.09375 -2.566406 1.09375 -2.140625 L 1.09375 -1.953125 C 1.09375 -1.535156 1.164062 -1.207031 1.3125 -0.96875 C 1.46875 -0.738281 1.691406 -0.625 1.984375 -0.625 C 2.265625 -0.625 2.476562 -0.734375 2.625 -0.953125 C 2.78125 -1.179688 2.859375 -1.507812 2.859375 -1.9375 Z M 2.859375 -2.125 "/></g></g></g><g fill="#000000" fill-opacity="1"><g transform="translate(60.415165, 19.257145)"><g/></g></g><g fill="#000000" fill-opacity="1"><g transform="translate(62.249515, 19.257145)"><g><path d="M 3.671875 0 L 2.84375 0 L 1.203125 -2.6875 L 1.203125 0 L 0.359375 0 L 0.359375 -4.078125 L 1.203125 -4.078125 L 2.84375 -1.390625 L 2.84375 -4.078125 L 3.671875 -4.078125 Z M 3.671875 0 "/></g></g></g><g fill="#000000" fill-opacity="1"><g transform="translate(66.703532, 19.257145)"><g><path d="M 3.453125 -4.078125 L 3.453125 -1.390625 C 3.453125 -0.941406 3.3125 -0.585938 3.03125 -0.328125 C 2.75 -0.0664062 2.367188 0.0625 1.890625 0.0625 C 1.410156 0.0625 1.03125 -0.0625 0.75 -0.3125 C 0.46875 -0.570312 0.328125 -0.921875 0.328125 -1.359375 L 0.328125 -4.078125 L 1.171875 -4.078125 L 1.171875 -1.390625 C 1.171875 -1.117188 1.234375 -0.921875 1.359375 -0.796875 C 1.484375 -0.679688 1.660156 -0.625 1.890625 -0.625 C 2.359375 -0.625 2.597656 -0.867188 2.609375 -1.359375 L 2.609375 -4.078125 Z M 3.453125 -4.078125 "/></g></g></g><g fill="#000000" fill-opacity="1"><g transform="translate(70.883266, 19.257145)"><g><path d="M 3.71875 -1.953125 C 3.71875 -1.546875 3.644531 -1.191406 3.5 -0.890625 C 3.351562 -0.585938 3.148438 -0.351562 2.890625 -0.1875 C 2.628906 -0.0195312 2.328125 0.0625 1.984375 0.0625 C 1.640625 0.0625 1.335938 -0.0195312 1.078125 -0.1875 C 0.816406 -0.351562 0.613281 -0.582031 0.46875 -0.875 C 0.320312 -1.175781 0.242188 -1.523438 0.234375 -1.921875 L 0.234375 -2.125 C 0.234375 -2.53125 0.304688 -2.882812 0.453125 -3.1875 C 0.597656 -3.488281 0.800781 -3.71875 1.0625 -3.875 C 1.332031 -4.039062 1.632812 -4.125 1.96875 -4.125 C 2.3125 -4.125 2.613281 -4.039062 2.875 -3.875 C 3.144531 -3.71875 3.351562 -3.488281 3.5 -3.1875 C 3.644531 -2.882812 3.71875 -2.53125 3.71875 -2.125 Z M 2.859375 -2.125 C 2.859375 -2.550781 2.78125 -2.875 2.625 -3.09375 C 2.476562 -3.320312 2.265625 -3.4375 1.984375 -3.4375 C 1.691406 -3.4375 1.46875 -3.328125 1.3125 -3.109375 C 1.164062 -2.890625 1.09375 -2.566406 1.09375 -2.140625 L 1.09375 -1.953125 C 1.09375 -1.535156 1.164062 -1.207031 1.3125 -0.96875 C 1.46875 -0.738281 1.691406 -0.625 1.984375 -0.625 C 2.265625 -0.625 2.476562 -0.734375 2.625 -0.953125 C 2.78125 -1.179688 2.859375 -1.507812 2.859375 -1.9375 Z M 2.859375 -2.125 "/></g></g></g><g fill="#000000" fill-opacity="1"><g transform="translate(75.24772, 19.257145)"><g><path d="M 1.875 -1.015625 L 2.796875 -4.078125 L 3.734375 -4.078125 L 2.3125 0 L 1.4375 0 L 0.015625 -4.078125 L 0.953125 -4.078125 Z M 1.875 -1.015625 "/></g></g></g><g fill="#000000" fill-opacity="1"><g transform="translate(79.402265, 19.257145)"><g><path d="M 2.8125 -1.765625 L 1.203125 -1.765625 L 1.203125 -0.671875 L 3.09375 -0.671875 L 3.09375 0 L 0.359375 0 L 0.359375 -4.078125 L 3.09375 -4.078125 L 3.09375 -3.390625 L 1.203125 -3.390625 L 1.203125 -2.421875 L 2.8125 -2.421875 Z M 2.8125 -1.765625 "/></g></g></g><g fill="#000000" fill-opacity="1"><g transform="translate(83.033436, 19.257145)"><g/></g></g><g fill="#000000" fill-opacity="1"><g transform="translate(84.867784, 19.257145)"><g><path d="M 3.5625 -1.359375 C 3.53125 -0.921875 3.367188 -0.570312 3.078125 -0.3125 C 2.785156 -0.0625 2.398438 0.0625 1.921875 0.0625 C 1.398438 0.0625 0.988281 -0.113281 0.6875 -0.46875 C 0.382812 -0.820312 0.234375 -1.304688 0.234375 -1.921875 L 0.234375 -2.171875 C 0.234375 -2.566406 0.300781 -2.910156 0.4375 -3.203125 C 0.582031 -3.503906 0.78125 -3.734375 1.03125 -3.890625 C 1.289062 -4.046875 1.59375 -4.125 1.9375 -4.125 C 2.40625 -4.125 2.78125 -4 3.0625 -3.75 C 3.351562 -3.5 3.519531 -3.144531 3.5625 -2.6875 L 2.734375 -2.6875 C 2.710938 -2.957031 2.640625 -3.148438 2.515625 -3.265625 C 2.390625 -3.378906 2.195312 -3.4375 1.9375 -3.4375 C 1.65625 -3.4375 1.441406 -3.335938 1.296875 -3.140625 C 1.160156 -2.941406 1.09375 -2.628906 1.09375 -2.203125 L 1.09375 -1.90625 C 1.09375 -1.457031 1.160156 -1.128906 1.296875 -0.921875 C 1.429688 -0.722656 1.640625 -0.625 1.921875 -0.625 C 2.179688 -0.625 2.375 -0.679688 2.5 -0.796875 C 2.632812 -0.921875 2.707031 -1.109375 2.71875 -1.359375 Z M 3.5625 -1.359375 "/></g></g></g><g fill="#000000" fill-opacity="1"><g transform="translate(89.025128, 19.257145)"><g><path d="M 3.71875 -1.953125 C 3.71875 -1.546875 3.644531 -1.191406 3.5 -0.890625 C 3.351562 -0.585938 3.148438 -0.351562 2.890625 -0.1875 C 2.628906 -0.0195312 2.328125 0.0625 1.984375 0.0625 C 1.640625 0.0625 1.335938 -0.0195312 1.078125 -0.1875 C 0.816406 -0.351562 0.613281 -0.582031 0.46875 -0.875 C 0.320312 -1.175781 0.242188 -1.523438 0.234375 -1.921875 L 0.234375 -2.125 C 0.234375 -2.53125 0.304688 -2.882812 0.453125 -3.1875 C 0.597656 -3.488281 0.800781 -3.71875 1.0625 -3.875 C 1.332031 -4.039062 1.632812 -4.125 1.96875 -4.125 C 2.3125 -4.125 2.613281 -4.039062 2.875 -3.875 C 3.144531 -3.71875 3.351562 -3.488281 3.5 -3.1875 C 3.644531 -2.882812 3.71875 -2.53125 3.71875 -2.125 Z M 2.859375 -2.125 C 2.859375 -2.550781 2.78125 -2.875 2.625 -3.09375 C 2.476562 -3.320312 2.265625 -3.4375 1.984375 -3.4375 C 1.691406 -3.4375 1.46875 -3.328125 1.3125 -3.109375 C 1.164062 -2.890625 1.09375 -2.566406 1.09375 -2.140625 L 1.09375 -1.953125 C 1.09375 -1.535156 1.164062 -1.207031 1.3125 -0.96875 C 1.46875 -0.738281 1.691406 -0.625 1.984375 -0.625 C 2.265625 -0.625 2.476562 -0.734375 2.625 -0.953125 C 2.78125 -1.179688 2.859375 -1.507812 2.859375 -1.9375 Z M 2.859375 -2.125 "/></g></g></g><g fill="#000000" fill-opacity="1"><g transform="translate(93.389582, 19.257145)"><g><path d="M 1.46875 -4.078125 L 2.515625 -1.125 L 3.546875 -4.078125 L 4.65625 -4.078125 L 4.65625 0 L 3.8125 0 L 3.8125 -1.109375 L 3.890625 -3.03125 L 2.796875 0 L 2.21875 0 L 1.125 -3.03125 L 1.203125 -1.109375 L 1.203125 0 L 0.359375 0 L 0.359375 -4.078125 Z M 1.46875 -4.078125 "/></g></g></g><g fill="#000000" fill-opacity="1"><g transform="translate(98.817576, 19.257145)"><g><path d="M 1.203125 -1.4375 L 1.203125 0 L 0.359375 0 L 0.359375 -4.078125 L 1.953125 -4.078125 C 2.253906 -4.078125 2.519531 -4.019531 2.75 -3.90625 C 2.988281 -3.789062 3.171875 -3.628906 3.296875 -3.421875 C 3.421875 -3.222656 3.484375 -2.992188 3.484375 -2.734375 C 3.484375 -2.328125 3.347656 -2.007812 3.078125 -1.78125 C 2.804688 -1.550781 2.425781 -1.4375 1.9375 -1.4375 Z M 1.203125 -2.109375 L 1.953125 -2.109375 C 2.171875 -2.109375 2.335938 -2.160156 2.453125 -2.265625 C 2.578125 -2.378906 2.640625 -2.53125 2.640625 -2.71875 C 2.640625 -2.914062 2.578125 -3.078125 2.453125 -3.203125 C 2.335938 -3.328125 2.175781 -3.390625 1.96875 -3.390625 L 1.203125 -3.390625 Z M 1.203125 -2.109375 "/></g></g></g><g fill="#000000" fill-opacity="1"><g transform="translate(102.921747, 19.257145)"><g><path d="M 2.8125 -1.765625 L 1.203125 -1.765625 L 1.203125 -0.671875 L 3.09375 -0.671875 L 3.09375 0 L 0.359375 0 L 0.359375 -4.078125 L 3.09375 -4.078125 L 3.09375 -3.390625 L 1.203125 -3.390625 L 1.203125 -2.421875 L 2.8125 -2.421875 Z M 2.8125 -1.765625 "/></g></g></g><g fill="#000000" fill-opacity="1"><g transform="translate(106.552922, 19.257145)"><g><path d="M 3.4375 -3.390625 L 2.1875 -3.390625 L 2.1875 0 L 1.34375 0 L 1.34375 -3.390625 L 0.109375 -3.390625 L 0.109375 -4.078125 L 3.4375 -4.078125 Z M 3.4375 -3.390625 "/></g></g></g><g fill="#000000" fill-opacity="1"><g transform="translate(110.505957, 19.257145)"><g><path d="M 2.8125 -1.765625 L 1.203125 -1.765625 L 1.203125 -0.671875 L 3.09375 -0.671875 L 3.09375 0 L 0.359375 0 L 0.359375 -4.078125 L 3.09375 -4.078125 L 3.09375 -3.390625 L 1.203125 -3.390625 L 1.203125 -2.421875 L 2.8125 -2.421875 Z M 2.8125 -1.765625 "/></g></g></g><g fill="#000000" fill-opacity="1"><g transform="translate(114.137132, 19.257145)"><g><path d="M 3.671875 0 L 2.84375 0 L 1.203125 -2.6875 L 1.203125 0 L 0.359375 0 L 0.359375 -4.078125 L 1.203125 -4.078125 L 2.84375 -1.390625 L 2.84375 -4.078125 L 3.671875 -4.078125 Z M 3.671875 0 "/></g></g></g><g fill="#000000" fill-opacity="1"><g transform="translate(118.591151, 19.257145)"><g><path d="M 1.25 -0.671875 L 3.3125 -0.671875 L 3.3125 0 L 0.203125 0 L 0.203125 -0.5 L 2.21875 -3.390625 L 0.203125 -3.390625 L 0.203125 -4.078125 L 3.265625 -4.078125 L 3.265625 -3.59375 Z M 1.25 -0.671875 "/></g></g></g><g fill="#000000" fill-opacity="1"><g transform="translate(122.471418, 19.257145)"><g><path d="M 2.8125 -1.765625 L 1.203125 -1.765625 L 1.203125 -0.671875 L 3.09375 -0.671875 L 3.09375 0 L 0.359375 0 L 0.359375 -4.078125 L 3.09375 -4.078125 L 3.09375 -3.390625 L 1.203125 -3.390625 L 1.203125 -2.421875 L 2.8125 -2.421875 Z M 2.8125 -1.765625 "/></g></g></g></svg>