<svg xmlns="http://www.w3.org/2000/svg" xmlns:xlink="http://www.w3.org/1999/xlink" width="40" zoomAndPan="magnify" viewBox="0 0 30 30.000001" height="40" preserveAspectRatio="xMidYMid meet" version="1.0"><defs><clipPath id="a24e67e069"><path d="M 0.484375 7 L 14 7 L 14 27.351562 L 0.484375 27.351562 Z M 0.484375 7 " clip-rule="nonzero"/></clipPath><clipPath id="ace6cfa6d1"><path d="M 12 15 L 14 15 L 14 27.351562 L 12 27.351562 Z M 12 15 " clip-rule="nonzero"/></clipPath><clipPath id="6da2bd3d57"><path d="M 13 15 L 15 15 L 15 27.351562 L 13 27.351562 Z M 13 15 " clip-rule="nonzero"/></clipPath><clipPath id="75d83f8d25"><path d="M 14 16 L 15 16 L 15 27.351562 L 14 27.351562 Z M 14 16 " clip-rule="nonzero"/></clipPath><clipPath id="5885ed56c5"><path d="M 15 16 L 16 16 L 16 27.351562 L 15 27.351562 Z M 15 16 " clip-rule="nonzero"/></clipPath><clipPath id="60feabbfb9"><path d="M 12 1.949219 L 22 1.949219 L 22 27.351562 L 12 27.351562 Z M 12 1.949219 " clip-rule="nonzero"/></clipPath><clipPath id="f3cebfdd2b"><path d="M 22 8 L 29.515625 8 L 29.515625 26 L 22 26 Z M 22 8 " clip-rule="nonzero"/></clipPath></defs><path fill="#000000" d="M 5.855469 18.429688 L 7.710938 19.445312 L 7.671875 19.753906 L 5.855469 18.804688 Z M 5.855469 18.429688 " fill-opacity="1" fill-rule="nonzero"/><path fill="#000000" d="M 6.03125 19.34375 L 7.367188 20.195312 L 7.367188 20.519531 L 6.03125 19.753906 Z M 6.03125 19.34375 " fill-opacity="1" fill-rule="nonzero"/><g clip-path="url(#a24e67e069)"><path fill="#000000" d="M 5.730469 17.855469 L 8.417969 19.152344 C 8.851562 22.085938 9.652344 24.683594 10.851562 26.917969 C 11.605469 27.128906 12.367188 27.246094 13.144531 27.253906 C 12.03125 22.613281 11.78125 17.859375 11.832031 13.101562 L 11.410156 13.3125 L 11.566406 7.703125 L 9.453125 8.984375 L 9.339844 14.359375 L 8.050781 15.023438 C 8.082031 15.917969 8.140625 16.792969 8.230469 17.636719 L 4.902344 16.023438 C 3.203125 16.601562 1.625 16.640625 0.488281 16.25 C 0.953125 18.710938 1.617188 20.644531 2.4375 22.148438 C 2.859375 22.921875 3.453125 23.582031 4.171875 24.089844 C 5.492188 25.023438 6.898438 25.792969 8.429688 26.320312 C 6.472656 23.3125 5.289062 20.007812 4.9375 16.382812 L 8.261719 17.980469 L 8.261719 17.945312 C 8.296875 18.253906 8.332031 18.558594 8.375 18.859375 L 5.730469 17.480469 Z M 5.730469 17.855469 " fill-opacity="1" fill-rule="nonzero"/></g><g clip-path="url(#ace6cfa6d1)"><path fill="#000000" d="M 12.578125 15.257812 L 12.898438 15.472656 C 13.027344 19.304688 13.304688 23.246094 13.722656 27.300781 L 13.578125 27.300781 C 13.101562 23.773438 12.792969 19.675781 12.578125 15.257812 Z M 12.578125 15.257812 " fill-opacity="1" fill-rule="nonzero"/></g><g clip-path="url(#6da2bd3d57)"><path fill="#000000" d="M 13.589844 15.742188 L 13.96875 16.011719 C 14.039062 20.199219 14.144531 24.085938 14.324219 27.3125 L 14.191406 27.300781 C 13.980469 24.066406 13.785156 20.054688 13.589844 15.742188 Z M 13.589844 15.742188 " fill-opacity="1" fill-rule="nonzero"/></g><g clip-path="url(#75d83f8d25)"><path fill="#000000" d="M 14.488281 16.28125 L 14.902344 16.492188 L 14.863281 27.34375 L 14.71875 27.34375 C 14.714844 23.300781 14.648438 19.554688 14.488281 16.28125 Z M 14.488281 16.28125 " fill-opacity="1" fill-rule="nonzero"/></g><g clip-path="url(#5885ed56c5)"><path fill="#000000" d="M 15.320312 16.710938 L 15.664062 16.980469 L 15.304688 27.351562 L 15.128906 27.351562 C 15.320312 24.121094 15.363281 20.523438 15.320312 16.710938 Z M 15.320312 16.710938 " fill-opacity="1" fill-rule="nonzero"/></g><g clip-path="url(#60feabbfb9)"><path fill="#000000" d="M 19.183594 16.09375 L 19.285156 13.59375 L 16.957031 11.433594 L 15.898438 12.007812 L 15.820312 6.121094 L 15.1875 5.429688 L 15.136719 3.769531 L 13.929688 1.949219 L 12.976562 2.640625 L 12.84375 4.484375 L 12.359375 4.839844 L 12.144531 7.96875 L 13.09375 8.734375 L 13.09375 13.769531 L 13.859375 14.242188 L 14.019531 3.566406 L 13.902344 3.71875 L 13.769531 3.710938 L 13.835938 2.300781 L 15.019531 4.15625 L 15.003906 5.726562 L 15.519531 6.238281 L 15.578125 15.078125 L 16.9375 15.785156 L 16.988281 11.992188 L 18.941406 13.777344 L 18.890625 16.1875 C 18.066406 16.457031 17.1875 16.71875 16.269531 16.980469 C 16.300781 20.546875 16.089844 23.996094 15.601562 27.3125 C 16.722656 27.304688 17.8125 27.199219 18.839844 26.917969 C 20.640625 23.269531 21.441406 19.324219 21.628906 15.191406 C 20.898438 15.5 20.078125 15.800781 19.183594 16.09375 Z M 19.183594 16.09375 " fill-opacity="1" fill-rule="nonzero"/></g><path fill="#000000" d="M 22.238281 16.890625 L 22.5625 17.074219 C 22.1875 21.097656 21.054688 24.1875 19.535156 26.804688 L 19.34375 26.769531 C 20.972656 23.71875 21.941406 20.425781 22.238281 16.890625 Z M 22.238281 16.890625 " fill-opacity="1" fill-rule="nonzero"/><path fill="#000000" d="M 23.175781 17.390625 L 23.460938 17.574219 C 23.097656 20.832031 22.019531 23.839844 20.265625 26.613281 L 20.117188 26.523438 C 22.566406 22.40625 22.816406 19.9375 23.175781 17.390625 Z M 23.175781 17.390625 " fill-opacity="1" fill-rule="nonzero"/><path fill="#000000" d="M 24.03125 17.808594 L 24.316406 17.972656 C 23.835938 21.074219 22.734375 23.875 21.039062 26.382812 L 20.828125 26.332031 C 22.441406 23.875 23.65625 21.132812 24.03125 17.808594 Z M 24.03125 17.808594 " fill-opacity="1" fill-rule="nonzero"/><path fill="#000000" d="M 24.753906 18.152344 L 25.027344 18.265625 C 24.511719 21.148438 23.402344 23.789062 21.679688 26.179688 L 21.460938 26.128906 C 23.042969 24.09375 24.335938 20.992188 24.753906 18.152344 Z M 24.753906 18.152344 " fill-opacity="1" fill-rule="nonzero"/><path fill="#000000" d="M 25.351562 18.375 L 25.5625 18.503906 C 25.015625 21.070312 23.886719 23.769531 22.257812 25.933594 L 22.140625 25.933594 C 23.667969 23.867188 24.738281 21.34375 25.351562 18.375 Z M 25.351562 18.375 " fill-opacity="1" fill-rule="nonzero"/><path fill="#000000" d="M 25.90625 18.503906 L 26.105469 18.644531 C 25.496094 21.324219 24.398438 23.625 22.910156 25.625 L 22.746094 25.613281 C 24.183594 23.738281 25.230469 21.355469 25.90625 18.503906 Z M 25.90625 18.503906 " fill-opacity="1" fill-rule="nonzero"/><g clip-path="url(#f3cebfdd2b)"><path fill="#000000" d="M 23.4375 25.289062 L 23.753906 25.203125 C 25.289062 23.3125 26.304688 20.613281 27.039062 17.488281 L 25.871094 17.175781 C 26.359375 14.597656 26.382812 11.882812 25.949219 9.039062 C 26.996094 10.609375 28.039062 12.023438 29.074219 13.195312 C 29.097656 17.195312 27.886719 20.628906 25.972656 23.742188 L 26.480469 23.355469 C 28.386719 20.230469 29.511719 16.851562 29.410156 13.070312 C 28.410156 11.960938 27.222656 10.394531 25.964844 8.660156 C 24.871094 8.6875 23.789062 8.910156 22.71875 9.316406 C 22.953125 11.605469 22.972656 13.824219 22.777344 15.96875 C 24.113281 16.816406 25.410156 17.460938 26.632812 17.765625 C 26.097656 20.585938 24.960938 23.050781 23.4375 25.285156 Z M 23.4375 25.289062 " fill-opacity="1" fill-rule="nonzero"/></g><path fill="#000000" d="M 26.8125 11.105469 L 28.679688 13.398438 L 28.679688 13.65625 L 26.8125 11.492188 Z M 26.8125 11.105469 " fill-opacity="1" fill-rule="nonzero"/><path fill="#000000" d="M 26.878906 12.472656 L 28.410156 14.167969 L 28.410156 14.425781 L 26.878906 12.808594 Z M 26.878906 12.472656 " fill-opacity="1" fill-rule="nonzero"/><path fill="#000000" d="M 26.878906 13.820312 L 27.746094 14.695312 L 27.746094 14.90625 L 26.878906 14.21875 Z M 26.878906 13.820312 " fill-opacity="1" fill-rule="nonzero"/><path fill="#000000" d="M 26.8125 14.832031 L 27.070312 15.191406 L 27.070312 15.4375 L 26.8125 15.179688 Z M 26.8125 14.832031 " fill-opacity="1" fill-rule="nonzero"/></svg>